<svg width="375" height="80" viewBox="0 0 375 80" fill="none" xmlns="http://www.w3.org/2000/svg">
<path d="M28.19 7.08008H9.32L0 31.5501H18.86L28.19 7.08008Z" fill="white"/>
<path d="M16.7803 44.8997H35.6503L44.9703 20.4297H26.1103L16.7803 44.8997Z" fill="white"/>
<path d="M90.7899 25.05L82.7299 23.35C76.9599 22.08 75.0899 19.87 75.0899 16.81C75.0899 13.16 78.2299 10.44 85.3599 10.44C92.9999 10.44 96.3099 14.26 96.6499 18.84H108.45C108.37 7.72 98.8599 0 85.5299 0C71.7799 0 63.1199 6.79 63.1199 16.81C63.1199 27.59 70.4199 31.92 80.6899 34.13L89.3499 36C94.9499 37.19 97.4999 39.31 97.4999 43.3C97.4999 47.8 93.9299 50.6 85.4499 50.6C78.1499 50.6 73.4799 47.29 72.9699 40.58H61.1699C61.7599 52.89 69.9999 60.95 85.4499 60.95C102.09 60.95 109.47 53.65 109.47 43.04C109.46 32.18 101.83 27.34 90.7899 25.05Z" fill="white"/>
<path d="M135.69 48.2998H135.35L125.17 16.0498H113.45V16.8998L128.48 60.0198L130.09 60.0998L123.38 78.7798V79.6298H135.61L158.44 16.8998V16.0498H146.22L135.69 48.2998Z" fill="white"/>
<path d="M188.66 15.2803C182.63 15.2803 178.56 17.7403 176.1 21.0503H175.76L174.91 16.0403H164.72V60.1803H176.1V35.7303C176.1 29.4503 179.75 25.6303 185.18 25.6303C190.87 25.6303 193.33 28.9403 193.33 34.4603V60.1803H204.7V31.2303C204.7 21.4803 198.42 15.2803 188.66 15.2803Z" fill="white"/>
<path d="M232.97 15.2803C218.79 15.2803 211.83 25.6403 211.83 38.2003C211.83 50.9303 219.47 60.9503 233.14 60.9503C244.51 60.9503 251.73 54.4103 252.92 46.4303H241.8C240.95 49.1503 238.23 51.5203 233.14 51.5203C226.6 51.5203 223.55 47.2803 223.46 41.2503H253.51V36.8403C253.51 24.7903 246.13 15.2803 232.97 15.2803ZM223.55 33.7003C223.8 28.6903 226.61 24.7903 232.97 24.7903C238.91 24.7903 241.71 28.6903 241.88 33.7003H223.55Z" fill="white"/>
<path d="M312.17 15.2803C305.29 15.2803 300.96 18.4203 298.67 21.8203H298.42C295.87 17.6603 291.38 15.2803 285.18 15.2803C279.15 15.2803 275.25 17.7403 272.79 21.0503H272.45L271.6 16.0403H261.41V60.1803H272.79V35.7303C272.79 29.4503 276.44 25.6303 281.7 25.6303C287.3 25.6303 289.42 28.9403 289.42 34.4603V60.1803H300.71V35.7303C300.71 29.5303 303.77 25.6303 309.11 25.6303C314.63 25.6303 316.75 28.9403 316.75 34.4603V60.1803H328.13V31.2303C328.13 21.4803 321.93 15.2803 312.17 15.2803Z" fill="white"/>
<path d="M355.54 15.2803C343.49 15.2803 337.21 21.9903 337.21 30.3003H347.91C347.91 27.1603 350.54 24.6103 355.29 24.6103C360.72 24.6103 362.93 27.5003 362.93 31.0603V33.5203H353.08C340.77 33.5203 335.25 39.2103 335.25 47.1903C335.25 55.0003 340.85 60.9403 350.7 60.9403C356.39 60.9403 360.55 58.8203 363.01 55.5903H363.35L364.2 60.1703H374.3V30.9703C374.3 21.9903 367.42 15.2803 355.54 15.2803ZM362.93 43.8003C362.93 48.2103 359.36 51.9503 353.42 51.9503C348.84 51.9503 346.54 49.7403 346.54 46.6903C346.54 43.5503 348.92 41.4303 353.92 41.4303H362.92V43.8003H362.93Z" fill="white"/>
</svg>
